# xmcd
#
# Track frame offsets: 
#        150
#        12572
#        22686
#        33874
#        45853
#        56022
#        66920
#        77387
#        90113
#        101391
#        111339
#        119394
#        131395
#        139860
#        147747
#        158676
#        167697
#
# Disc length: 2371 seconds
#
# Revision: 0
# Processed by: cddbd v1.5.2PL0 Copyright (c) Steve Scherf et al.
# Submitted via: ExactAudioCopy v0.99pb5
#
DISCID=ce094111
DTITLE=Johnny Cash - My Best To You [Disc 1]
DYEAR=1900
DGENRE=Country
TTITLE0=I Walk the Line
TTITLE1=Hey Porter
TTITLE2=Cry! Cry! Cry!
TTITLE3=So Doggone Lonesome
TTITLE4=Get Rhythm
TTITLE5=Train of Love
TTITLE6=There You Go
TTITLE7=Next in Line
TTITLE8=Don't Make Me Go
TTITLE9=Rock Island Line
TTITLE10=Wreck of the Old 97
TTITLE11=Doin' My Time
TTITLE12=Country Boy
TTITLE13=If the Good Lord's Willing
TTITLE14=I Heard That Lonesome Whistle Blow
TTITLE15=Remember Me
TTITLE16=I Was There When It Happened
EXTD=
EXTT0=
EXTT1=
EXTT2=
EXTT3=
EXTT4=
EXTT5=
EXTT6=
EXTT7=
EXTT8=
EXTT9=
EXTT10=
EXTT11=
EXTT12=
EXTT13=
EXTT14=
EXTT15=
EXTT16=
PLAYORDER=
